<svg xmlns="http://www.w3.org/2000/svg" version="1.2" baseProfile="tiny" shape-rendering="crispEdges" viewBox="0 0 320 320" fill="rgb(0,0,0)" style="background-color:rgba(1)"><path d="M10 10h12v84H10zM10 106h12v24H10zM10 154h12v24H10zM10 202h24v12H10zM10 226h12v84H10zM22 10h72v12H22zM22 82h72v12H22zM22 106h12v12H22zM22 130h12v12H22zM22 226h72v12H22zM22 298h72v12H22zM34 34h36v36H34zM34 118h12v12H34zM34 142h12v12H34zM34 250h36v36H34zM46 154h12v24H46zM46 202h24v12H46zM58 106h36v12H58zM58 130h36v12H58zM58 154h12v12H58z"/><path d="M58 190h12v24H58zM70 142h12v12H70zM70 166h12v12H70zM70 190h12v12H70zM82 22h12v72H82zM82 154h12v12H82zM82 178h24v12H82zM82 202h12v12H82zM82 238h12v72H82zM94 118h12v12H94z"/><path d="M94 166h12v24H94zM106 10h12v48h-12zM106 70h12v24h-12zM106 130h36v12h-36zM106 154h12v12h-12zM106 190h12v36h-12zM106 238h12v24h-12zM106 286h12v24h-12zM118 34h12v48h-12zM118 142h12v12h-12zM118 166h24v12h-24zM118 202h12v36h-12zM130 46h12v72h-12zM130 178h12v36h-12zM130 238h12v12h-12zM130 286h12v24h-12zM142 22h48v12h-48zM142 94h12v12h-12zM142 154h12v12h-12zM142 178h12v24h-12zM142 250h12v12h-12zM142 274h12v24h-12zM154 34h12v36h-12zM154 82h12v12h-12zM154 106h24v12h-24zM154 142h12v12h-12zM154 166h12v24h-12zM154 202h24v12h-24zM154 238h12v12h-12zM154 262h12v24h-12zM154 298h24v12h-24z"/><path d="M166 10h24v24h-24zM166 94h12v36h-12zM166 154h36v12h-36zM166 178h12v48h-12zM166 250h24v12h-24zM166 274h12v36h-12zM178 34h12v12h-12zM178 58h36v12h-36zM178 82h12v12h-12zM178 118h48v12h-48z"/><path d="M178 142h12v24h-12zM178 178h24v12h-24zM178 214h36v12h-36zM178 238h12v24h-12zM178 274h12v12h-12zM190 10h24v12h-24zM190 46h12v24h-12zM190 94h24v12h-24zM190 130h12v12h-12z"/><path d="M190 166h12v24h-12zM190 262h12v12h-12zM190 286h12v24h-12zM202 22h12v12h-12zM202 82h12v48h-12zM202 190h12v72h-12zM214 130h12v36h-12zM214 178h12v12h-12zM214 202h72v12h-72zM214 250h72v12h-72zM214 274h24v12h-24zM226 10h12v84h-12zM226 154h24v12h-24zM226 226h12v12h-12z"/><path d="M226 262h12v36h-12zM238 10h72v12h-72zM238 82h72v12h-72zM238 106h12v12h-12zM238 130h12v36h-12zM238 178h24v36h-24zM238 262h12v12h-12zM238 286h60v12h-60zM250 34h36v36h-36zM250 118h24v12h-24z"/><path d="M250 166h12v96h-12zM262 106h12v36h-12zM262 154h48v12h-48zM262 178h24v12h-24zM262 238h24v24h-24zM262 274h12v24h-12zM274 106h36v12h-36z"/><path d="M274 130h12v36h-12zM274 190h12v24h-12zM274 262h36v12h-36zM274 298h36v12h-36zM286 118h12v12h-12zM286 142h12v36h-12zM286 190h12v12h-12zM286 238h24v12h-24z"/><path d="M286 274h12v36h-12zM298 22h12v72h-12zM298 250h12v24h-12z"/></svg>