<svg xmlns="http://www.w3.org/2000/svg" viewBox="550 -100 100 100"><path d="M595.16-99.87c-11.77 1.21-22.31 6.2-30.59 14.47-7.94 7.94-12.67 17.58-14.34 29.22-.16 1.06-.25 3.58-.23 6.26 0 3.66.08 5.01.43 7.24.88 5.53 2.29 9.99 4.75 14.94 4.87 9.84 12.63 17.6 22.49 22.49 6.63 3.31 13.12 4.95 20.61 5.22 8.12.31 15.9-1.33 23.27-4.89 5.36-2.58 8.98-5.12 13.18-9.21 4.56-4.44 7.33-8.25 10.09-13.89.9-1.84 1.96-4.24 2.35-5.38 4.44-12.93 3.62-26.56-2.33-38.62-2.66-5.36-5.24-9-9.37-13.18-7.8-7.88-17.27-12.65-28.49-14.39-2.45-.38-9.32-.55-11.82-.28zm8.58 10.6c12.14 1.28 22.68 7.7 29.23 17.82 4.72 7.27 7.03 16.28 6.26 24.44-.36 3.88-.82 6.07-1.97 9.54-3.88 11.65-13.12 20.9-24.78 24.78-3.47 1.16-5.66 1.61-9.54 1.97-8.16.77-17.17-1.54-24.44-6.26-17.84-11.56-23.31-35.15-12.35-53.33 7.81-13.01 22.71-20.53 37.59-18.96z"/><path d="M597.72-83.76c-2 1.28-4.05 4.33-5.73 8.57-.82 2.05-2.65 8.88-2.65 9.87v.6h21.24l-.17-1.16c-.31-2.12-1.76-7.42-2.62-9.54-3.01-7.47-6.65-10.5-10.07-8.34zM588.48-82.55c-7.1 2.5-13.58 7.66-17.72 14.11-.65 1.04-1.88 3.37-1.88 3.61 0 .07 3.44.1 7.63.07l7.63-.07.22-1.08c1.18-6.31 3.39-12.81 5.59-16.32.34-.55.6-1.01.55-1.01-.05-.01-.94.3-2.02.69zM609.93-82.22c1.85 2.96 4 8.86 5.06 13.89.36 1.66.67 3.15.75 3.3.07.24 1.81.31 7.68.31 4.17 0 7.58-.07 7.58-.14 0-.51-2.07-3.95-3.52-5.87-4.31-5.73-10.4-10.04-17.14-12.18l-1.04-.31.63 1zM566.74-59.34c-.79 2.05-1.11 4.77-1.11 9.32s.31 7.25 1.08 9.27l.24.6h16.64l-.19-2.24c-.24-2.84-.24-12.11 0-15.17l.17-2.34h-16.62l-.21.56zM588.55-59.37c-.1.31-.27 2.53-.43 4.94-.22 3.39-.22 5.42 0 8.79.17 2.43.34 4.65.43 4.94l.12.55h22.54l.12-.55c.46-1.73.7-9.56.43-13.7-.17-2.43-.34-4.65-.43-4.96l-.12-.53h-22.54l-.12.52zM616.48-57.56c.12 1.3.19 4.69.19 7.54 0 2.84-.07 6.24-.19 7.51l-.17 2.36h16.62l.22-.55c.8-2.05 1.11-4.77 1.11-9.32s-.31-7.27-1.11-9.32l-.22-.55h-16.62l.17 2.33zM568.88-35.22c0 .39 1.44 2.89 2.75 4.79 3.08 4.55 7.63 8.52 12.54 11.03 2.79 1.4 5.78 2.55 6.02 2.34.07-.1-.24-.79-.72-1.59-1.78-3.01-3.59-8.28-4.77-13.92l-.55-2.65-7.63-.07c-4.2-.02-7.64 0-7.64.07zM589.47-34.21c.29 2.02 1.73 7.34 2.53 9.34 2.34 5.92 5.22 9.27 7.95 9.27 2.72 0 5.61-3.35 7.95-9.27.8-2 2.24-7.32 2.53-9.34l.17-1.13h-21.3l.17 1.13zM615.73-35.05c-.07.17-.39 1.66-.75 3.32-1.06 5.03-3.2 10.93-5.03 13.89l-.63.99 1.04-.31c2.55-.79 5.83-2.31 7.97-3.68 3.78-2.41 7.51-6.02 9.99-9.65 1.23-1.83 2.67-4.36 2.67-4.72 0-.07-3.42-.12-7.58-.12-5.87-.01-7.6.06-7.68.28z"/></svg>