<svg xmlns="http://www.w3.org/2000/svg" version="1.2" baseProfile="tiny" shape-rendering="crispEdges" viewBox="0 0 320 320" fill="rgb(0,0,0)" style="background-color:rgba(1)"><path d="M10 10h12v84H10zM10 106h12v48H10zM10 166h12v48H10zM10 226h12v84H10zM22 10h72v12H22zM22 82h72v12H22zM22 106h12v24H22zM22 166h12v12H22zM22 226h72v12H22zM22 298h72v12H22zM34 34h36v36H34zM34 106h36v12H34zM34 130h12v12H34zM34 154h12v12H34zM34 190h24v24H34zM34 250h36v36H34zM46 118h12v12H46zM58 154h12v24H58zM58 190h24v12H58zM70 118h12v24H70z"/><path d="M70 178h12v24H70zM82 22h12v72H82zM82 106h48v12H82zM82 130h12v12H82zM82 154h108v12H82zM82 178h36v12H82zM82 202h24v12H82zM82 238h12v72H82zM94 118h24v12H94z"/><path d="M94 142h12v48H94zM106 22h12v12h-12zM106 46h12v12h-12zM106 70h12v24h-12zM106 190h36v12h-36zM106 214h12v24h-12zM106 250h12v60h-12zM118 34h12v12h-12zM118 58h12v12h-12zM118 94h12v24h-12zM118 166h12v12h-12zM118 202h12v12h-12zM118 226h12v72h-12zM130 22h12v12h-12zM130 46h84v12h-84zM130 70h12v24h-12zM130 130h12v12h-12zM130 214h24v12h-24zM130 250h12v24h-12zM130 286h12v12h-12zM142 10h12v12h-12z"/><path d="M142 34h12v36h-12zM142 94h24v12h-24zM142 118h12v12h-12zM142 166h36v12h-36zM142 262h12v12h-12zM142 298h36v12h-36z"/><path d="M154 82h12v36h-12zM154 178h12v12h-12zM154 238h12v24h-12zM166 106h12v36h-12zM166 202h12v36h-12zM166 250h96v12h-96zM166 274h24v12h-24zM178 22h24v36h-24zM178 82h12v36h-12zM178 142h12v24h-12zM178 190h12v24h-12zM178 226h12v12h-12zM178 286h48v12h-48zM190 70h24v12h-24zM190 106h36v12h-36zM190 130h24v12h-24zM190 178h24v12h-24zM190 202h72v12h-72zM202 10h12v12h-12z"/><path d="M202 58h12v36h-12zM202 118h12v36h-12zM202 214h12v48h-12zM202 274h12v24h-12zM214 118h12v12h-12zM214 154h24v12h-24zM214 190h48v24h-48zM226 10h12v84h-12z"/><path d="M226 130h12v36h-12zM226 178h36v36h-36zM226 226h12v12h-12zM226 262h12v12h-12zM238 10h72v12h-72zM238 82h72v12h-72zM238 106h12v48h-12z"/><path d="M238 166h12v48h-12zM238 286h36v24h-36zM250 34h36v36h-36zM250 154h12v12h-12zM250 214h12v60h-12zM262 106h12v12h-12zM262 130h12v12h-12zM262 166h12v24h-12zM262 214h12v12h-12zM262 238h12v12h-12z"/><path d="M262 262h12v48h-12zM274 154h36v12h-36zM274 202h12v12h-12zM274 226h36v12h-36zM274 250h12v36h-12zM274 298h36v12h-36zM286 106h12v36h-12zM286 166h12v24h-12zM286 238h12v36h-12zM298 22h12v72h-12z"/><path d="M298 130h12v36h-12zM298 178h12v24h-12zM298 262h12v48h-12z"/></svg>