<svg xmlns="http://www.w3.org/2000/svg" xmlns:xlink="http://www.w3.org/1999/xlink" width="400" height="651" viewBox="0 0 400 651"><svg width="195" height="195" id="M" y="0"><g fill="none"><path fill="transparent" d="M0 0h195v195H0z"></path><path d="M46.534 65.216a5.074 5.074 0 0 0-1.651-4.28L32.65 46.2V44h37.98l29.355 64.381L125.795 44H162v2.201l-10.458 10.027a3.057 3.057 0 0 0-1.162 2.935v73.674a3.057 3.057 0 0 0 1.162 2.935l10.213 10.027V148h-51.372v-2.201l10.58-10.272c1.04-1.04 1.04-1.345 1.04-2.934V73.042l-29.417 74.713H88.61L54.362 73.042v50.074a6.908 6.908 0 0 0 1.896 5.747l13.76 16.691v2.201H31v-2.2l13.76-16.692a6.663 6.663 0 0 0 1.774-5.747v-57.9z" fill="#FFF"></path></g></svg><svg viewBox="0 0 400 400" width="400" height="400" id="Tw" y="195"><path opacity=".15" fill="#292f33" d="M0 0h400v400H0z"></path><path d="M153.6 301.6c94.3 0 145.9-78.2 145.9-145.9 0-2.2 0-4.4-.1-6.6 10-7.2 18.7-16.3 25.6-26.6-9.2 4.1-19.1 6.8-29.5 8.1 10.6-6.3 18.7-16.4 22.6-28.4-9.9 5.9-20.9 10.1-32.6 12.4-9.4-10-22.7-16.2-37.4-16.2-28.3 0-51.3 23-51.3 51.3 0 4 .5 7.9 1.3 11.7-42.6-2.1-80.4-22.6-105.7-53.6-4.4 7.6-6.9 16.4-6.9 25.8 0 17.8 9.1 33.5 22.8 42.7-8.4-.3-16.3-2.6-23.2-6.4v.7c0 24.8 17.7 45.6 41.1 50.3-4.3 1.2-8.8 1.8-13.5 1.8-3.3 0-6.5-.3-9.6-.9 6.5 20.4 25.5 35.2 47.9 35.6-17.6 13.8-39.7 22-63.7 22-4.1 0-8.2-.2-12.2-.7 22.6 14.4 49.6 22.9 78.5 22.9" fill="#fff"></path></svg><svg viewBox="0 0 24 24" width="24" height="24" id="github" y="595"><path d="M12 .297c-6.63 0-12 5.373-12 12 0 5.303 3.438 9.8 8.205 11.385.6.113.82-.258.82-.577 0-.285-.01-1.04-.015-2.04-3.338.724-4.042-1.61-4.042-1.61C4.422 18.07 3.633 17.7 3.633 17.7c-1.087-.744.084-.729.084-.729 1.205.084 1.838 1.236 1.838 1.236 1.07 1.835 2.809 1.305 3.495.998.108-.776.417-1.305.76-1.605-2.665-.3-5.466-1.332-5.466-5.93 0-1.31.465-2.38 1.235-3.22-.135-.303-.54-1.523.105-3.176 0 0 1.005-.322 3.3 1.23.96-.267 1.98-.399 3-.405 1.02.006 2.04.138 3 .405 2.28-1.552 3.285-1.23 3.285-1.23.645 1.653.24 2.873.12 3.176.765.84 1.23 1.91 1.23 3.22 0 4.61-2.805 5.625-5.475 5.92.42.36.81 1.096.81 2.22 0 1.606-.015 2.896-.015 3.286 0 .315.21.69.825.57C20.565 22.092 24 17.592 24 12.297c0-6.627-5.373-12-12-12"></path></svg><svg class="icon-svg icon-svg_logo-habrahabr" width="181" height="32" id="habrahabr" y="619"><path d="M24.736 1.044h-8.582L12.53 6.168 8.91 1.044H.325l7.898 11.194L0 23.888h8.583l3.948-5.58 3.95 5.58h8.583l-8.256-11.65zm9.297 6.038c-3.133 0-6.036.88-8.256 2.61l2.87 3.428c1.502-.98 3.754-1.535 5.255-1.535 1.372 0 2.577.36 2.577 2.09v.49c-6.56 0-11.096 1.142-11.096 5.58 0 3.133 2.252 4.633 5.71 4.633 1.665 0 3.885-.913 5.386-2.61v2.12h6.07V12.696c0-4.765-4.73-5.613-8.516-5.613zm2.448 11.455c-.912 1.21-1.89 1.73-2.773 1.73-1.24 0-1.6-.654-1.6-1.274 0-1.533 1.96-2.087 4.373-2.087v1.63zm17.456-9.791c-1.47 0-3.818.62-4.863 1.894.294-2.448 2.023-3.655 5.32-4.308 1.534-.294 5.155-.98 7.18-1.402L60.463 0c-2.546.62-4.864 1.143-7.508 1.633-6.657 1.24-8.125 5.156-8.125 12.14 0 6.658 2.743 10.608 8.813 10.608 5.188 0 8.615-3.426 8.615-8.517 0-3.983-2.87-7.116-8.32-7.116zm-.39 10.28c-1.437 0-2.644-1.24-2.644-2.675s1.207-2.675 2.643-2.675c1.436 0 2.643 1.24 2.643 2.676s-1.208 2.677-2.644 2.677zM74.82 7.082c-1.664 0-3.46 1.044-4.21 2.61v-2.12h-6.07v22.974h6.07v-8.778c.752 1.567 2.546 2.61 4.21 2.61 4.765 0 7.343-3.883 7.343-8.648 0-4.764-2.577-8.647-7.343-8.647zm-1.957 11.552c-.88 0-1.697-.423-2.252-1.108v-3.622c.555-.653 1.373-1.076 2.253-1.076a2.911 2.911 0 0 1 2.905 2.905c0 1.564-1.338 2.902-2.905 2.902zM92.767 7.082c-3.133 0-6.038.88-8.256 2.61l2.872 3.428c1.5-.98 3.753-1.535 5.254-1.535 1.372 0 2.58.36 2.58 2.09v.49c-6.56 0-11.098 1.142-11.098 5.58 0 3.133 2.252 4.633 5.71 4.633 1.665 0 3.885-.913 5.387-2.61v2.12h6.068V12.696c0-4.765-4.732-5.613-8.516-5.613zm2.448 11.455c-.915 1.21-1.894 1.73-2.775 1.73-1.24 0-1.6-.654-1.6-1.274 0-1.533 1.96-2.087 4.375-2.087v1.63zM122.723 7.57h-7.703l-2.055 4.276-2.057-4.275h-7.7l5.58 7.997-5.874 8.32h7.702l2.35-4.306 2.35 4.308h7.702l-6.528-8.32zm10.244-.488c-3.133 0-6.038.88-8.257 2.61l2.873 3.428c1.503-.98 3.753-1.535 5.255-1.535 1.37 0 2.58.36 2.58 2.09v.49c-6.56 0-11.098 1.142-11.098 5.58 0 3.133 2.252 4.633 5.71 4.633 1.665 0 3.885-.913 5.386-2.61v2.12h6.068V12.696c0-4.765-4.732-5.613-8.516-5.613zm2.448 11.455c-.913 1.21-1.894 1.73-2.775 1.73-1.24 0-1.6-.654-1.6-1.274 0-1.533 1.96-2.087 4.375-2.087v1.63zm17.455-9.791c-1.468 0-3.817.62-4.862 1.894.294-2.448 2.023-3.655 5.32-4.308 1.536-.294 5.157-.98 7.18-1.402L159.397 0c-2.546.62-4.864 1.143-7.506 1.633-6.657 1.24-8.125 5.156-8.125 12.14 0 6.658 2.742 10.608 8.81 10.608 5.19 0 8.617-3.426 8.617-8.517 0-3.983-2.873-7.116-8.323-7.116zm-.39 10.28c-1.437 0-2.643-1.24-2.643-2.675s1.206-2.675 2.643-2.675c1.436 0 2.643 1.24 2.643 2.676 0 1.437-1.207 2.677-2.643 2.677zm21.274-11.944c-1.664 0-3.46 1.044-4.21 2.61v-2.12h-6.07v22.974h6.07v-8.778c.75 1.567 2.546 2.61 4.21 2.61 4.764 0 7.343-3.883 7.343-8.648 0-4.764-2.58-8.647-7.343-8.647zm-1.958 11.552c-.88 0-1.697-.423-2.252-1.108v-3.622c.554-.653 1.37-1.076 2.252-1.076 1.565 0 2.905 1.273 2.905 2.905 0 1.564-1.34 2.902-2.904 2.902z" fill="#464646"></path></svg></svg>